<svg width="300" height="300" viewBox="0 0 300 300" fill="none" xmlns="http://www.w3.org/2000/svg">
<g clip-path="url(#clip0_2480_116)">
<path fill-rule="evenodd" clip-rule="evenodd" d="M34.3108 1.30852C33.1378 1.9033 31.3783 2.97391 30.6452 3.56869C29.912 4.16347 22.8739 21.0553 14.6628 41.04L0 77.3217V93.0241C0 109.916 0.439881 111.819 3.95894 113.96C5.57185 114.793 8.94428 114.912 31.3783 114.912C58.651 114.912 60.4106 114.674 62.3167 111.819C62.7566 111.105 63.0499 104.324 63.0499 94.3327V78.0354L70.8211 40.4452C72.1107 34.1677 73.3329 28.1856 74.4182 22.8739L74.4195 22.8672L74.4198 22.8658C76.9119 10.668 78.6814 2.0075 78.8856 1.42748L79.3255 0H57.9179C38.563 0.118957 36.3636 0.237914 34.3108 1.30852ZM126.099 1.1891C126.099 1.66208 124.987 12.6667 123.499 27.3833L123.489 27.4815L123.487 27.4962L123.472 27.6492C123.096 31.3614 122.698 35.306 122.287 39.3741C118.915 72.2061 118.475 78.5107 118.475 93.618V110.629L121.114 112.77L123.753 114.912H150H176.246L178.885 112.77L181.525 110.629V93.618C181.525 78.5107 181.085 72.2061 177.712 39.3741C177.292 35.2135 176.885 31.1822 176.502 27.3964L176.501 27.3864C175.013 12.6683 173.9 1.66212 173.9 1.1891C173.9 0.237448 172.287 0.118492 150 0.118492C127.712 0.118492 126.099 0.237448 126.099 1.1891ZM225.581 22.9905C223.088 10.7893 221.318 2.12609 221.114 1.54597L220.821 0.118492H241.935C264.662 0.118492 265.542 0.237448 269.061 3.33032C270.087 4.28197 275.659 17.2482 285.337 41.0395L299.999 77.3212V93.261C299.999 110.154 299.56 112.175 295.894 114.198C294.281 115.149 290.762 115.149 267.301 115.03L240.615 114.792L238.709 113.008L236.803 111.224V94.6889V78.1539L229.178 40.5637C227.889 34.2854 226.666 28.3026 225.581 22.9905ZM24.3336 270.52L24.3399 271.934L24.4286 272.047C25.984 291.583 39.8851 298.64 51.1672 298.503C67.9786 298.3 73.2707 289.807 76.2463 284.902C78.6268 290.788 82.3172 295.096 89.7561 297.758C96.6672 300.231 102.155 300.174 109.098 297.758C116.669 295.124 121.047 288.172 123.031 284.902C127.792 291.769 135.458 296.448 139.113 297.954C142.768 299.461 150.286 301.117 157.596 297.954C165.704 294.447 170.756 289.398 172.74 284.902C174.201 288.461 178.186 295.39 185.897 297.955C193.404 300.453 202.03 300.902 209.289 297.954C216.879 294.874 219.7 289.802 221.608 286.371C221.905 285.838 222.18 285.343 222.447 284.902C230.489 298.548 242.669 299.457 248.534 299.177C269.328 298.184 274.829 282.615 275.891 271.983L276.099 271.696L276.393 206.032L276.099 140.487H260.264H244.428V185.096V229.704H150H55.4249V185.096V140.487H39.5892H23.9L24.0466 206.151L24.316 266.566C24.2691 267.934 24.2762 269.252 24.3336 270.52Z" fill="black"/>
</g>
<defs>
<clipPath id="clip0_2480_116">
<rect width="299.999" height="300" fill="white"/>
</clipPath>
</defs>
</svg>
