<svg width="48" height="49" viewBox="0 0 48 49" fill="none" xmlns="http://www.w3.org/2000/svg">
<path d="M33 18.2207H42C42.4062 18.2207 42.7891 18.1426 43.1484 17.9863C43.5078 17.8301 43.8281 17.6113 44.1094 17.3301C44.3906 17.0488 44.6094 16.7285 44.7656 16.3691C44.9219 16.0098 45 15.627 45 15.2207V6.2207C45 5.81445 44.9219 5.43164 44.7656 5.07227C44.6094 4.71289 44.3906 4.39258 44.1094 4.11133C43.8281 3.83008 43.5078 3.61133 43.1484 3.45508C42.7891 3.29883 42.4062 3.2207 42 3.2207H6C5.59375 3.2207 5.21094 3.29883 4.85156 3.45508C4.49219 3.61133 4.17188 3.83008 3.89062 4.11133C3.60938 4.39258 3.39062 4.71289 3.23438 5.07227C3.07812 5.43164 3 5.81445 3 6.2207V15.2207C3 15.627 3.07812 16.0098 3.23438 16.3691C3.39062 16.7285 3.60938 17.0488 3.89062 17.3301C4.17188 17.6113 4.49219 17.8301 4.85156 17.9863C5.21094 18.1426 5.59375 18.2207 6 18.2207H12V15.2207H6V6.2207H42V15.2207H33V18.2207ZM39 30.2207V31.7207H36V28.7207C36 28.5332 35.9609 28.3457 35.8828 28.1582C35.8047 27.9707 35.7031 27.7988 35.5781 27.6426C35.4219 27.5176 35.25 27.416 35.0625 27.3379C34.875 27.2598 34.6875 27.2207 34.5 27.2207C34.3125 27.2207 34.125 27.2598 33.9375 27.3379C33.75 27.416 33.5781 27.5176 33.4219 27.6426C33.2969 27.7988 33.1953 27.9707 33.1172 28.1582C33.0391 28.3457 33 28.5332 33 28.7207V31.7207H30V27.2207C30 27.0332 29.9609 26.8457 29.8828 26.6582C29.8047 26.4707 29.7031 26.2988 29.5781 26.1426C29.4219 26.0176 29.25 25.916 29.0625 25.8379C28.875 25.7598 28.6875 25.7207 28.5 25.7207C28.3125 25.7207 28.125 25.7598 27.9375 25.8379C27.75 25.916 27.5781 26.0176 27.4219 26.1426C27.2969 26.2988 27.1953 26.4707 27.1172 26.6582C27.0391 26.8457 27 27.0332 27 27.2207V31.7207H24V15.2207C24 15.0332 23.9609 14.8457 23.8828 14.6582C23.8047 14.4707 23.7031 14.2988 23.5781 14.1426C23.4219 14.0176 23.25 13.916 23.0625 13.8379C22.875 13.7598 22.6875 13.7207 22.5 13.7207C22.3125 13.7207 22.125 13.7598 21.9375 13.8379C21.75 13.916 21.5781 14.0176 21.4219 14.1426C21.2969 14.2988 21.1953 14.4707 21.1172 14.6582C21.0391 14.8457 21 15.0332 21 15.2207V37.5801L12.8906 32.002C12.7969 31.9395 12.6797 31.8848 12.5391 31.8379C12.3984 31.791 12.2656 31.752 12.1406 31.7207C11.9844 31.7207 11.8438 31.7285 11.7188 31.7441C11.5938 31.7598 11.4688 31.7988 11.3438 31.8613C11.2188 31.9238 11.1016 32.002 10.9922 32.0957C10.8828 32.1895 10.7969 32.2988 10.7344 32.4238C10.6406 32.5488 10.5781 32.6816 10.5469 32.8223C10.5156 32.9629 10.5 33.0957 10.5 33.2207C10.5 33.3145 10.5078 33.4082 10.5234 33.502C10.5391 33.5957 10.5625 33.6895 10.5938 33.7832C10.6562 33.877 10.7109 33.9629 10.7578 34.041C10.8047 34.1191 10.8594 34.2051 10.9219 34.2988L20.4844 43.0176L18.4688 45.2207L8.8125 36.4082C8.40625 36.002 8.09375 35.541 7.875 35.0254C7.65625 34.5098 7.53125 33.9707 7.5 33.4082C7.46875 32.8457 7.54688 32.2988 7.73438 31.7676C7.92188 31.2363 8.20312 30.752 8.57812 30.3145C8.95312 29.877 9.39062 29.5254 9.89062 29.2598C10.3906 28.9941 10.9219 28.8301 11.4844 28.7676C12.0469 28.7051 12.6016 28.7441 13.1484 28.8848C13.6953 29.0254 14.1875 29.252 14.625 29.5645L18 31.8613V15.2207C18 14.627 18.1172 14.0566 18.3516 13.5098C18.5859 12.9629 18.9062 12.4707 19.3125 12.0332C19.75 11.627 20.2422 11.3066 20.7891 11.0723C21.3359 10.8379 21.9062 10.7207 22.5 10.7207C23.0938 10.7207 23.6641 10.8379 24.2109 11.0723C24.7578 11.3066 25.25 11.627 25.6875 12.0332C26.0938 12.4707 26.4141 12.9629 26.6484 13.5098C26.8828 14.0566 27 14.627 27 15.2207V23.002C27.25 22.9082 27.5 22.8379 27.75 22.791C28 22.7441 28.25 22.7207 28.5 22.7207C28.875 22.7207 29.25 22.7676 29.625 22.8613C30 22.9551 30.3438 23.0957 30.6562 23.2832C31 23.4707 31.3047 23.6973 31.5703 23.9629C31.8359 24.2285 32.0781 24.5176 32.2969 24.8301C32.7969 24.5488 33.3359 24.3613 33.9141 24.2676C34.4922 24.1738 35.0469 24.2051 35.5781 24.3613C36.1406 24.4863 36.6562 24.7207 37.125 25.0645C37.5938 25.4082 37.9844 25.8301 38.2969 26.3301C38.6406 26.1426 39 25.9941 39.375 25.8848C39.75 25.7754 40.125 25.7207 40.5 25.7207C41.0938 25.7207 41.6641 25.8379 42.2109 26.0723C42.7578 26.3066 43.25 26.627 43.6875 27.0332C44.0938 27.4707 44.4141 27.9629 44.6484 28.5098C44.8828 29.0566 45 29.627 45 30.2207V45.2207H42V30.2207C42 30.0332 41.9609 29.8457 41.8828 29.6582C41.8047 29.4707 41.7031 29.2988 41.5781 29.1426C41.4219 29.0176 41.25 28.916 41.0625 28.8379C40.875 28.7598 40.6875 28.7207 40.5 28.7207C40.3125 28.7207 40.125 28.7598 39.9375 28.8379C39.75 28.916 39.5781 29.0176 39.4219 29.1426C39.2969 29.2988 39.1953 29.4707 39.1172 29.6582C39.0391 29.8457 39 30.0332 39 30.2207Z" fill="white"/>
</svg>
