<svg width="48" height="49" viewBox="0 0 48 49" fill="none" xmlns="http://www.w3.org/2000/svg">
<path d="M33.9844 9.27832C32.5156 8.27832 30.9297 7.52051 29.2266 7.00488C27.5234 6.48926 25.7812 6.23145 24 6.23145C21.625 6.23145 19.3359 6.69238 17.1328 7.61426C14.9297 8.53613 12.9844 9.84082 11.2969 11.5283C9.60938 13.2158 8.30469 15.1611 7.38281 17.3643C6.46094 19.5674 6 21.8564 6 24.2314C6 26.0127 6.25781 27.7549 6.77344 29.458C7.28906 31.1611 8.04688 32.7471 9.04688 34.2158C10.0156 35.7158 11.1875 37.0283 12.5625 38.1533C13.9375 39.2783 15.4531 40.1846 17.1094 40.8721C18.7656 41.5596 20.4766 41.9893 22.2422 42.1611C24.0078 42.333 25.7656 42.2471 27.5156 41.9033C29.2656 41.5596 30.9219 40.9658 32.4844 40.1221C34.0469 39.2783 35.4688 38.2314 36.75 36.9814C38 35.7002 39.0469 34.2783 39.8906 32.7158C40.7344 31.1533 41.3281 29.4971 41.6719 27.7471C42.0156 25.9971 42.1016 24.2393 41.9297 22.4736C41.7578 20.708 41.3281 18.9971 40.6406 17.3408C39.9531 15.6846 39.0469 14.1689 37.9219 12.7939C36.7969 11.4189 35.4844 10.2471 33.9844 9.27832ZM12.3281 6.79395C14.0469 5.6377 15.9062 4.75488 17.9062 4.14551C19.9062 3.53613 21.9375 3.23145 24 3.23145C25.4062 3.23145 26.7813 3.37207 28.125 3.65332C29.4688 3.93457 30.7734 4.33301 32.0391 4.84863C33.3047 5.36426 34.5 6.0127 35.625 6.79395C36.7812 7.54395 37.8438 8.41895 38.8125 9.41895C39.8125 10.3877 40.6875 11.4502 41.4375 12.6064C42.2188 13.7314 42.8672 14.9268 43.3828 16.1924C43.8984 17.458 44.2969 18.7627 44.5781 20.1064C44.8594 21.4502 45 22.8252 45 24.2314C45 26.2939 44.6953 28.3252 44.0859 30.3252C43.4766 32.3252 42.5938 34.1846 41.4375 35.9033C40.3125 37.6221 38.9453 39.1377 37.3359 40.4502C35.7266 41.7627 33.9531 42.8252 32.0156 43.6377C30.1094 44.4189 28.125 44.9111 26.0625 45.1143C24 45.3174 21.9531 45.2158 19.9219 44.8096C17.8594 44.4033 15.9141 43.7158 14.0859 42.7471C12.2578 41.7783 10.6094 40.5596 9.14062 39.0908C7.67188 37.6221 6.45312 35.9736 5.48438 34.1455C4.51563 32.3174 3.82812 30.3721 3.42188 28.3096C3.01562 26.2783 2.91406 24.2314 3.11719 22.1689C3.32031 20.1064 3.8125 18.1221 4.59375 16.2158C5.40625 14.2783 6.46875 12.5049 7.78125 10.8955C9.09375 9.28613 10.6094 7.91895 12.3281 6.79395ZM31.5 15.2314V18.2314H19.5V22.7314H28.5C28.9063 22.7314 29.2891 22.8096 29.6484 22.9658C30.0078 23.1221 30.3281 23.3408 30.6094 23.6221C30.8906 23.9033 31.1094 24.2236 31.2656 24.583C31.4219 24.9424 31.5 25.3252 31.5 25.7314V30.2314C31.5 30.6377 31.4219 31.0205 31.2656 31.3799C31.1094 31.7393 30.8906 32.0596 30.6094 32.3408C30.3281 32.6221 30.0078 32.8408 29.6484 32.9971C29.2891 33.1533 28.9063 33.2314 28.5 33.2314H25.5V37.7314H22.5V33.2314H16.5V30.2314H28.5V25.7314H19.5C19.0938 25.7314 18.7109 25.6533 18.3516 25.4971C17.9922 25.3408 17.6719 25.1221 17.3906 24.8408C17.1094 24.5596 16.8906 24.2393 16.7344 23.8799C16.5781 23.5205 16.5 23.1377 16.5 22.7314V18.2314C16.5 17.8252 16.5781 17.4424 16.7344 17.083C16.8906 16.7236 17.1094 16.4033 17.3906 16.1221C17.6719 15.8408 17.9922 15.6221 18.3516 15.4658C18.7109 15.3096 19.0938 15.2314 19.5 15.2314H22.5V10.7314H25.5V15.2314H31.5Z" fill="white"/>
</svg>
