<svg width="48" height="49" viewBox="0 0 48 49" fill="none" xmlns="http://www.w3.org/2000/svg">
<path d="M38.5312 14.1895L28.0312 3.68945C27.9062 3.5332 27.7578 3.41602 27.5859 3.33789C27.4141 3.25977 27.2188 3.2207 27 3.2207H12C11.1875 3.2207 10.4844 3.51758 9.89062 4.11133C9.29688 4.70508 9 5.4082 9 6.2207V42.2207C9 43.0332 9.29688 43.7363 9.89062 44.3301C10.4844 44.9238 11.1875 45.2207 12 45.2207H36C36.8125 45.2207 37.5156 44.9238 38.1094 44.3301C38.7031 43.7363 39 43.0332 39 42.2207V15.2207C39 15.002 38.9609 14.8066 38.8828 14.6348C38.8047 14.4629 38.6875 14.3145 38.5312 14.1895ZM27 6.83008L35.3906 15.2207H27V6.83008ZM36 42.2207H12V6.2207H24V15.2207C24 16.0332 24.2969 16.7363 24.8906 17.3301C25.4844 17.9238 26.1875 18.2207 27 18.2207H36V42.2207ZM15 33.2207V36.2207H33V33.2207H15ZM15 27.2207V24.2207H33V27.2207H15Z" fill="white"/>
</svg>
