<svg width="48" height="49" viewBox="0 0 48 49" fill="none" xmlns="http://www.w3.org/2000/svg">
<path d="M44.2031 28.9082L35.5312 24.2207L44.2031 19.5332C44.3281 19.4707 44.4375 19.3926 44.5312 19.2988C44.625 19.2051 44.7031 19.0957 44.7656 18.9707C44.8594 18.877 44.9219 18.7598 44.9531 18.6191C44.9844 18.4785 45 18.3457 45 18.2207C45 18.0957 44.9844 17.9629 44.9531 17.8223C44.9219 17.6816 44.8594 17.5645 44.7656 17.4707C44.7031 17.3457 44.625 17.2363 44.5312 17.1426C44.4375 17.0488 44.3281 16.9707 44.2031 16.9082L24.7031 6.4082C24.6094 6.3457 24.5 6.29883 24.375 6.26758C24.25 6.23633 24.125 6.2207 24 6.2207C23.875 6.2207 23.75 6.23633 23.625 6.26758C23.5 6.29883 23.3906 6.3457 23.2969 6.4082L3.79688 16.9082C3.67188 16.9707 3.5625 17.0488 3.46875 17.1426C3.375 17.2363 3.29688 17.3457 3.23438 17.4707C3.14062 17.5645 3.07812 17.6816 3.04688 17.8223C3.01562 17.9629 3 18.0957 3 18.2207C3 18.3457 3.01562 18.4785 3.04688 18.6191C3.07812 18.7598 3.14062 18.877 3.23438 18.9707C3.29688 19.0957 3.375 19.2051 3.46875 19.2988C3.5625 19.3926 3.67188 19.4707 3.79688 19.5332L12.4688 24.2207L3.79688 28.9082C3.67188 28.9707 3.5625 29.0488 3.46875 29.1426C3.375 29.2363 3.29688 29.3457 3.23438 29.4707C3.14062 29.5645 3.07812 29.6816 3.04688 29.8223C3.01562 29.9629 3 30.0957 3 30.2207C3 30.3457 3.01562 30.4785 3.04688 30.6191C3.07812 30.7598 3.14062 30.877 3.23438 30.9707C3.29688 31.0957 3.375 31.2051 3.46875 31.2988C3.5625 31.3926 3.67188 31.4707 3.79688 31.5332L23.2969 42.0332C23.3906 42.0957 23.5 42.1426 23.625 42.1738C23.75 42.2051 23.875 42.2207 24 42.2207C24.125 42.2207 24.25 42.2051 24.375 42.1738C24.5 42.1426 24.6094 42.0957 24.7031 42.0332L44.2031 31.5332C44.3281 31.4707 44.4375 31.3926 44.5312 31.2988C44.625 31.2051 44.7031 31.0957 44.7656 30.9707C44.8594 30.877 44.9219 30.7598 44.9531 30.6191C44.9844 30.4785 45 30.3457 45 30.2207C45 30.0957 44.9844 29.9629 44.9531 29.8223C44.9219 29.6816 44.8594 29.5645 44.7656 29.4707C44.7031 29.3457 44.625 29.2363 44.5312 29.1426C44.4375 29.0488 44.3281 28.9707 44.2031 28.9082ZM24 9.4082L40.3125 18.2207L24 27.0332L7.6875 18.2207L24 9.4082ZM24 39.0332L7.6875 30.2207L15.6562 25.9082L23.2969 30.0332C23.3906 30.0957 23.5 30.1426 23.625 30.1738C23.75 30.2051 23.875 30.2207 24 30.2207C24.125 30.2207 24.25 30.2051 24.375 30.1738C24.5 30.1426 24.6094 30.0957 24.7031 30.0332L32.3438 25.9082L40.3125 30.2207L24 39.0332Z" fill="white"/>
</svg>
