<svg width="48" height="49" viewBox="0 0 48 49" fill="none" xmlns="http://www.w3.org/2000/svg">
<g clip-path="url(#clip0_1670_1510)">
<path d="M33 7.7207H37.5C37.9062 7.7207 38.2891 7.79883 38.6484 7.95508C39.0078 8.11133 39.3281 8.33008 39.6094 8.61133C39.8906 8.89258 40.1094 9.21289 40.2656 9.57227C40.4219 9.93164 40.5 10.3145 40.5 10.7207V18.2207H37.5V10.7207H33V15.2207H15V10.7207H10.5V42.2207H24V45.2207H10.5C10.0938 45.2207 9.71094 45.1426 9.35156 44.9863C8.99219 44.8301 8.67188 44.6113 8.39062 44.3301C8.10938 44.0488 7.89062 43.7285 7.73438 43.3691C7.57812 43.0098 7.5 42.627 7.5 42.2207V10.7207C7.5 10.3145 7.57812 9.93164 7.73438 9.57227C7.89062 9.21289 8.10938 8.89258 8.39062 8.61133C8.67188 8.33008 8.99219 8.11133 9.35156 7.95508C9.71094 7.79883 10.0938 7.7207 10.5 7.7207H15V6.2207C15 5.81445 15.0781 5.43164 15.2344 5.07227C15.3906 4.71289 15.6094 4.39258 15.8906 4.11133C16.1719 3.83008 16.4922 3.61133 16.8516 3.45508C17.2109 3.29883 17.5938 3.2207 18 3.2207H30C30.4062 3.2207 30.7891 3.29883 31.1484 3.45508C31.5078 3.61133 31.8281 3.83008 32.1094 4.11133C32.3906 4.39258 32.6094 4.71289 32.7656 5.07227C32.9219 5.43164 33 5.81445 33 6.2207V7.7207ZM18 12.2207H30V6.2207H18V12.2207ZM43.9219 25.9082C44.2656 26.5645 44.5312 27.2598 44.7188 27.9941C44.9062 28.7285 45 29.4707 45 30.2207C45 30.8457 44.9375 31.4707 44.8125 32.0957C44.6875 32.7207 44.4844 33.3145 44.2031 33.877C43.9531 34.4707 43.6406 35.0176 43.2656 35.5176C42.8906 36.0176 42.4688 36.4863 42 36.9238V48.2207L36 45.3613L30 48.2207V36.9238C29.4375 36.4238 28.9453 35.8613 28.5234 35.2363C28.1016 34.6113 27.7656 33.9395 27.5156 33.2207C27.2656 32.5332 27.1094 31.8145 27.0469 31.0645C26.9844 30.3145 27 29.5645 27.0938 28.8145C27.2188 28.0645 27.4297 27.3457 27.7266 26.6582C28.0234 25.9707 28.4062 25.3301 28.875 24.7363C29.3125 24.1426 29.8281 23.6113 30.4219 23.1426C31.0156 22.6738 31.6562 22.2832 32.3438 21.9707C33.0312 21.6582 33.7422 21.4395 34.4766 21.3145C35.2109 21.1895 35.9531 21.1582 36.7031 21.2207C37.4531 21.2832 38.1875 21.4395 38.9062 21.6895C39.625 21.9395 40.2969 22.2676 40.9219 22.6738C41.5469 23.0801 42.1094 23.5566 42.6094 24.1035C43.1094 24.6504 43.5469 25.252 43.9219 25.9082ZM36 42.0801L39 43.4863V38.7051C38.0312 39.0488 37.0312 39.2207 36 39.2207C34.9688 39.2207 33.9688 39.0488 33 38.7051V43.4863L36 42.0801ZM32.6719 35.1895C33.1719 35.5332 33.7031 35.791 34.2656 35.9629C34.8281 36.1348 35.4062 36.2207 36 36.2207C36.7812 36.2207 37.5391 36.0645 38.2734 35.752C39.0078 35.4395 39.6562 35.002 40.2188 34.4395C40.7812 33.877 41.2188 33.2285 41.5312 32.4941C41.8438 31.7598 42 31.002 42 30.2207C42 29.627 41.9141 29.0488 41.7422 28.4863C41.5703 27.9238 41.3125 27.3926 40.9688 26.8926C40.6562 26.3926 40.2734 25.9551 39.8203 25.5801C39.3672 25.2051 38.8594 24.9082 38.2969 24.6895C37.7344 24.4395 37.1641 24.291 36.5859 24.2441C36.0078 24.1973 35.4219 24.2207 34.8281 24.3145C34.2344 24.4395 33.6797 24.6426 33.1641 24.9238C32.6484 25.2051 32.1719 25.5645 31.7344 26.002C31.3281 26.4082 30.9844 26.8691 30.7031 27.3848C30.4219 27.9004 30.2188 28.4551 30.0938 29.0488C30 29.6426 29.9766 30.2285 30.0234 30.8066C30.0703 31.3848 30.2188 31.9551 30.4688 32.5176C30.6875 33.0801 30.9844 33.5879 31.3594 34.041C31.7344 34.4941 32.1719 34.877 32.6719 35.1895Z" fill="white"/>
</g>
<defs>
<clipPath id="clip0_1670_1510">
<rect width="48" height="48" fill="white" transform="matrix(1 0 0 -1 0 48.2207)"/>
</clipPath>
</defs>
</svg>
