<svg width="49" height="49" viewBox="0 0 49 49" fill="none" xmlns="http://www.w3.org/2000/svg">
<g clip-path="url(#clip0_1703_2134)">
<mask id="mask0_1703_2134" style="mask-type:luminance" maskUnits="userSpaceOnUse" x="0" y="0" width="49" height="49">
<path d="M25.8818 0.388672L48.5086 23.0155L23.3044 48.2197L0.677568 25.5929L25.8818 0.388672Z" fill="white"/>
</mask>
<g mask="url(#mask0_1703_2134)">
<path fill-rule="evenodd" clip-rule="evenodd" d="M19.5398 19.6973C19.4343 19.5449 19.3405 19.4277 19.2936 19.3105C18.9888 18.3257 18.7074 17.3409 18.3791 16.3796C17.9764 15.2146 17.4162 14.1102 16.7142 13.097C16.257 12.4288 15.8115 11.7488 15.3777 11.104C15.4246 10.7992 15.788 10.8813 15.8232 10.6116C16.0811 10.6585 16.1983 10.8227 16.3273 10.9985C16.5266 11.3151 16.7376 11.6433 16.937 11.9598C17.2887 12.4991 17.7107 12.9681 18.1914 13.3784C18.9886 14.0584 19.7858 14.7384 20.6182 15.3832C21.2278 15.8521 21.8843 16.2508 22.6346 16.4853C22.9864 16.6025 23.3029 16.7784 23.6546 16.8956C23.9125 16.966 24.1821 17.0011 24.4401 17.0715C25.46 17.3646 26.4917 17.5522 27.5702 17.5522C28.8715 17.564 30.1376 17.3061 31.4154 17.1303C32.8691 16.9194 34.1235 16.2277 35.3427 15.4775C36.3509 14.8445 37.3942 14.2701 38.3203 13.5081C38.4376 13.4143 38.5783 13.3674 38.7189 13.2971C38.7814 13.3596 38.8479 13.4183 38.9182 13.4729C38.8948 13.5198 38.8831 13.5784 38.8596 13.6019C38.5314 13.8832 38.1914 14.1529 37.8866 14.4576C37.2301 15.1141 36.5854 15.7823 35.9289 16.4388C35.1786 17.1891 34.4401 17.9511 33.6781 18.7131C32.9513 19.4164 32.4003 20.2253 32.0252 21.1632C31.9431 21.3625 31.8376 21.5618 31.7087 21.7376C31.3336 22.2534 31.1694 22.8396 31.146 23.4726C31.1343 24.0002 31.0757 24.5043 31.064 25.0318C31.0289 25.7001 31.1813 26.3449 31.3806 26.9662C31.5526 27.4976 31.701 28.0292 31.8262 28.5606C32.002 29.2757 32.342 29.9205 32.7172 30.5536C33.0689 31.1163 33.4324 31.6908 33.7606 32.277C34.1124 32.8866 34.5579 33.4024 34.9916 33.93C35.3316 34.3638 35.6716 34.7975 36.0702 35.2899C35.9296 35.2899 35.8358 35.3134 35.8123 35.2899C34.8744 34.3989 33.9365 33.4845 32.9869 32.6286C32.4476 32.1597 31.8849 31.7376 31.3104 31.3507C30.6305 30.8818 29.927 30.4363 29.2236 30.0376C28.4499 29.5921 27.6409 29.2052 26.8438 28.8301C26.07 28.4549 25.2376 28.3493 24.3701 28.279C23.6315 28.2438 22.9633 28.5368 22.2599 28.6306C21.2986 28.7478 20.4428 29.205 19.6105 29.6856C18.2037 30.5062 16.7852 31.3385 15.4136 32.2177C14.0186 33.1203 12.6704 34.0933 11.4161 35.1836C11.2637 35.3125 11.0761 35.3828 10.8885 35.4766C10.8299 35.4883 10.7361 35.4649 10.6775 35.4532C10.6541 35.2656 10.6423 35.0897 10.6423 34.9256C10.6189 34.7146 10.7244 34.5622 10.8768 34.4332C11.7091 33.6478 12.5649 32.8858 13.3972 32.1004C14.0068 31.5142 14.6516 30.9398 15.2143 30.3068C15.8825 29.5448 16.5038 28.7359 17.0899 27.9153C17.4533 27.4112 17.7347 26.8251 18.0277 26.2741C18.4146 25.5824 18.649 24.8321 18.9538 24.1287C19.1413 23.7067 19.1882 23.2378 19.3992 22.8392C19.4227 22.7688 19.3875 22.6868 19.3875 22.6164C19.3875 22.5461 19.364 22.4758 19.3758 22.4171C19.6688 21.7724 19.4578 21.0924 19.5867 20.4242C19.5984 20.3656 19.5398 20.2835 19.5164 20.2132C19.4695 20.0256 19.3757 19.838 19.5398 19.6973ZM23.9946 17.259C24.0649 17.3997 24.147 17.5052 24.358 17.3411C24.2056 17.3059 24.1118 17.2825 23.9946 17.259Z" fill="#212328"/>
</g>
</g>
<defs>
<clipPath id="clip0_1703_2134">
<rect width="32" height="35.81" fill="white" transform="translate(25.9404 0.330078) rotate(45)"/>
</clipPath>
</defs>
</svg>
