<svg width="55" height="55" viewBox="0 0 55 55" fill="none" xmlns="http://www.w3.org/2000/svg">
<g clip-path="url(#clip0_1703_2140)">
<mask id="mask0_1703_2140" style="mask-type:luminance" maskUnits="userSpaceOnUse" x="0" y="0" width="55" height="55">
<path d="M31.5088 0.865234L54.1305 23.487L23.3103 54.3071L0.688611 31.6854L31.5088 0.865234Z" fill="white"/>
</mask>
<g mask="url(#mask0_1703_2140)">
<path d="M33.1477 2.636C33.6723 3.75071 33.4755 4.79988 33.3771 5.88183C33.1147 9.29161 32.7539 12.6686 32.5243 16.0456C32.3931 17.4882 32.4258 18.898 32.4258 20.3406C32.4586 20.9635 32.4258 21.5209 32.0979 22.0455C31.5405 22.9308 31.7044 23.8816 31.8027 24.7668C32.7863 25.488 33.7698 26.0782 34.655 26.8322C36.9828 28.7009 39.6385 29.5861 42.5236 30.1761L45.1465 30.7006C45.0153 31.3564 44.9497 31.8809 44.8514 32.3727C44.6874 33.1924 44.2284 33.5203 43.4415 33.5203C39.9662 33.3893 36.5892 33.8156 33.2777 34.701C32.9827 34.7993 32.7204 34.9305 32.4581 35.0616C31.704 35.4223 31.0482 35.8158 30.1958 35.947C29.245 36.1109 28.4909 36.865 27.9007 37.6519C26.2285 39.7175 25.6711 42.2421 25.0152 44.7339C24.5234 46.6027 23.9987 48.5043 23.4741 50.4059C23.2118 51.2584 22.7855 51.9469 21.8347 52.3076C21.8348 50.3404 21.8021 48.406 21.8349 46.4716C21.8678 44.5373 22.0318 42.6029 21.999 40.6685C21.9991 39.2259 21.8352 37.8161 21.7697 36.3735C21.7697 35.98 21.6714 35.5538 21.737 35.1604C21.8681 34.3079 21.7042 33.6194 20.8518 33.1605C20.3928 32.8982 19.9994 32.5048 19.6059 32.1113C18.2618 30.7671 16.5241 30.2098 14.852 29.5214C12.4587 28.5707 10.0325 27.7183 7.63915 26.8332C6.8195 26.5381 6.65559 25.9808 7.24576 25.325C7.63921 24.866 8.09823 24.7348 8.65559 24.7676C10.3605 24.8331 12.0654 24.833 13.7702 24.8986C16.0653 24.964 18.262 24.6033 20.4259 23.7508C21.1144 23.4557 21.9669 23.3901 22.6226 23.0622C24.9833 22.013 26.5571 20.1113 27.8358 17.9802C28.2948 17.1933 28.7539 16.3408 29.1473 15.4884C29.7375 14.3736 30.2622 13.1933 30.8523 12.013C31.6393 10.4392 31.8033 8.70151 32.164 7.02939C32.4919 5.7835 32.6559 4.50483 32.9182 3.25895C32.951 3.02944 33.0821 2.83272 33.1477 2.636Z" fill="#212328"/>
</g>
</g>
<defs>
<clipPath id="clip0_1703_2140">
<rect width="32" height="44.05" fill="white" transform="translate(31.6699 0.699219) rotate(45)"/>
</clipPath>
</defs>
</svg>
