<svg width="151" height="81" viewBox="0 0 151 81" fill="none" xmlns="http://www.w3.org/2000/svg">
<g opacity="0.999797" clip-path="url(#clip0_1703_2146)">
<mask id="mask0_1703_2146" style="mask-type:luminance" maskUnits="userSpaceOnUse" x="0" y="0" width="150" height="99">
<path d="M0.581055 98.8594V0.871696H149.79V98.8594H0.581055Z" fill="white"/>
</mask>
<g mask="url(#mask0_1703_2146)">
<path d="M82.3866 55.6543C82.2878 55.6543 82.2136 55.6298 82.1639 55.5801C82.2381 55.6543 82.3123 55.7286 82.3866 55.6543ZM63.0117 58.9948C62.7147 58.9451 62.4423 58.8961 62.1951 58.8464C62.3933 59.0446 62.665 59.0936 63.0117 58.9948ZM93.67 50.9034C93.9669 50.8537 94.2394 50.8047 94.4866 50.7549C94.2639 50.7549 94.0412 50.755 93.67 50.9034ZM40.7417 58.7721C40.4468 58.7268 40.1492 58.702 39.8509 58.6979C40.3705 58.7721 40.5932 58.8464 40.7417 58.7721ZM126.407 27.9654C126.11 28.1139 125.912 28.2868 125.813 28.485C126.036 28.485 126.258 28.3366 126.407 27.9654ZM121.285 32.2709V32.1967C121.211 32.1967 121.211 32.1967 121.285 32.2709ZM117.722 34.7206H117.796C117.722 34.6464 117.722 34.6464 117.722 34.7206ZM125.813 28.485C125.071 28.7077 124.328 28.3366 124.774 29.3016C124.328 29.5985 123.982 29.9942 123.734 30.4893C124.7 30.8605 125.442 29.0789 125.813 28.485ZM82.3866 55.4316C82.535 55.5801 82.9062 55.4316 82.3866 55.4316V55.4316ZM88.0283 53.1304L87.4344 53.2789C87.6571 53.2789 87.8056 53.2789 88.0283 53.1304ZM109.036 44.7421C108.987 44.7918 108.938 44.8163 108.888 44.8163C108.888 44.8905 108.962 44.8163 109.036 44.7421ZM87.4344 53.2789C87.286 53.3531 87.0633 53.3531 86.9148 53.4273C87.113 53.3776 87.286 53.3286 87.4344 53.2789ZM18.1005 8.96173C18.1005 8.96173 17.8778 9.33289 18.7686 9.18442C19.214 8.44209 18.0263 8.36786 18.8429 7.5513C17.5067 8.44209 18.9913 7.5513 18.1005 8.96173ZM18.1005 7.774C17.7294 7.69976 18.0263 7.774 17.4325 7.774H18.1005ZM63.2344 45.7071V45.2617C63.1601 45.4844 63.1601 45.6329 63.2344 45.7071ZM43.3399 51.3488C43.5626 51.3488 43.7853 51.2746 43.9337 51.2004C43.6368 51.2004 43.4141 51.2746 43.3399 51.3488ZM10.1576 14.0838C9.91039 14.2323 9.71219 14.4305 9.56372 14.6777L10.1576 14.0838ZM42.8202 4.87891C42.1521 5.25007 44.2307 5.7697 44.5276 5.7697C44.0078 5.38656 43.4319 5.08608 42.8202 4.87891ZM60.1166 19.5028C60.1166 19.4531 60.0668 19.3544 59.9681 19.2059L60.1166 19.5028ZM14.4631 9.25866C13.7208 9.70406 13.0527 10.2237 12.3104 10.7433C12.7558 10.5206 14.3889 9.70406 14.4631 9.25866ZM8.37599 20.6906C8.37599 20.6408 8.35149 20.6163 8.30176 20.6163L8.37599 20.6906ZM105.176 46.5237C105.275 46.5237 105.399 46.4992 105.547 46.4494C105.449 46.4494 105.325 46.4739 105.176 46.5237Z" fill="#100F13" fill-opacity="0.2"/>
<path fill-rule="evenodd" clip-rule="evenodd" d="M37.3267 3.02385C38.2175 3.46925 40.7414 4.21158 41.1868 4.65698C38.6629 5.10238 43.9334 6.66127 45.0469 7.32937H44.5273C45.4181 7.92324 46.3089 8.9625 47.5708 9.11097C47.1752 9.06123 46.8285 9.1607 46.5316 9.4079C46.3089 10.1502 49.5751 10.8183 50.0205 12.0061C49.9708 11.5109 49.9463 11.0165 49.9463 10.5214C50.8371 11.5607 51.8021 10.7441 52.6187 11.7834C52.2475 12.5257 54.1776 13.7134 54.8457 14.3815C56.1819 15.7177 56.9985 17.7962 58.4831 18.7613C58.2604 18.687 60.7101 21.5821 61.0071 21.9533C62.4917 23.6607 63.3083 25.2195 64.1249 27.0754C64.5703 27.9662 64.8672 29.5251 65.9065 30.0447C65.9562 30.3914 65.9807 30.7625 65.9807 31.1582C65.3868 30.8613 64.8672 29.2281 64.1249 29.2281C64.7187 31.084 65.6095 32.5686 66.2776 34.4244C66.5003 35.0183 66.3519 35.3152 66.5003 35.9091C66.7973 36.8741 67.6138 37.468 66.7973 37.0968C67.0283 37.8648 67.4959 38.5403 68.1335 39.0269C67.3169 35.3152 69.0985 38.6557 69.6181 40.7343C70.6574 44.6686 70.5832 48.6772 70.5832 52.6858C74.8887 52.5373 80.3077 51.5723 85.2071 50.6073C86.0237 50.0134 86.8402 49.1968 87.8795 49.0484C87.9292 49.2956 87.9782 49.568 88.028 49.8649C89.4384 49.1968 90.3292 47.9349 91.6654 47.1925C92.3335 47.4152 90.1807 48.6772 92.7789 47.4152C91.8139 48.2318 94.1151 46.8956 92.5562 48.0833C92.9274 48.9741 95.2286 47.5637 94.5605 47.5637C95.3771 47.4895 94.709 47.6379 94.9317 48.0833C96.2679 47.7864 96.2679 46.8214 94.9317 46.7471C98.4949 46.5987 98.1979 45.9306 100.351 44.3717C103.543 41.9962 107.7 39.9919 111.337 38.2103C110.446 39.3981 108.442 39.8435 107.774 41.1054L107.922 40.957C107.7 41.2539 107.403 41.6251 107.403 41.7735C108.962 41.7735 108.813 40.2146 110.075 40.2889C108.368 41.4766 110.892 40.2889 110.075 41.2539C110.521 40.957 113.342 39.4723 110.149 40.5116C110.372 39.8435 111.857 39.0269 112.302 38.6557C112.525 38.433 114.307 37.0226 114.603 36.8741C114.603 37.1213 114.579 37.3938 114.529 37.6907C116.311 37.3195 117.796 36.206 119.354 35.3895C118.81 35.5877 118.291 35.6122 117.796 35.4637C118.092 35.0183 118.389 34.6471 118.686 34.276C118.643 34.451 118.594 34.6244 118.538 34.7956C119.132 34.3502 120.319 32.2717 120.097 33.8306C122.25 32.5686 120.839 33.8306 122.695 32.9398C122.459 32.7501 122.211 32.5765 121.953 32.4202C122.918 32.049 127.594 28.56 127.743 28.6343C128.188 28.3373 125.442 31.8263 127 31.6778C127.446 31.084 127.867 30.4656 128.262 29.822C126.629 30.4901 129.673 24.5514 130.415 26.2588C130.489 26.5557 131.306 25.0711 131.38 24.9968C131.33 25.195 131.38 25.3435 131.529 25.4422C131.974 25.1453 132.197 23.8091 132.197 23.9576C132.197 24.1803 134.721 21.0625 134.869 20.7656C134.869 21.5821 132.865 25.1453 132.939 25.2195C134.943 24.5514 135.463 21.211 136.205 20.0975C136.651 19.4294 137.542 18.8355 137.245 18.2416C136.873 18.2416 138.581 16.3858 138.507 16.5343C138.408 17.1281 138.631 17.2269 139.175 16.8312C138.432 17.722 139.249 18.5386 138.507 19.2809C138.655 18.8852 138.729 18.4643 138.729 18.0189C138.581 17.1281 136.502 21.211 136.799 20.6171L137.393 20.0232C138.284 20.5429 136.577 22.2502 137.022 22.9926C137.121 22.7454 137.294 22.6214 137.542 22.6214C137.059 23.0041 136.634 23.4541 136.28 23.9576C136.329 23.7104 136.354 23.4624 136.354 23.2153C135.018 23.8091 135.315 24.7741 134.201 25.5907C133.978 25.0711 135.018 24.403 134.869 23.8834C134.795 23.5122 133.904 25.2938 133.83 25.2938C132.568 26.2588 131.9 26.4073 131.009 28.2631C131.158 27.719 131.356 27.2238 131.603 26.7784C131.009 27.5208 129.45 27.595 129.153 28.6343C129.4 28.5355 129.648 28.4116 129.896 28.2631C129.302 28.7085 128.832 29.2281 128.485 29.822C128.881 30.2177 129.277 30.2674 129.673 29.9705C128.708 30.8613 127.669 32.3459 126.926 31.7521C126.852 31.8263 124.773 33.4594 125.367 33.7564C125.442 33.7564 126.481 32.7913 126.407 33.4594C125.887 33.2367 125.813 34.2017 125.442 34.4244C126.035 33.2367 123.883 34.7214 124.254 33.979C122.992 34.7214 122.101 35.6122 121.21 36.4287C118.612 35.1668 120.468 37.1711 118.686 38.73C118.686 38.4828 118.662 38.2348 118.612 37.9876C118.538 38.0619 116.756 39.1011 117.202 39.5465C117.276 39.4723 119.503 39.1754 119.429 39.7692C119.28 40.4373 113.935 39.9919 113.119 42.5159C113.342 42.7386 114.232 42.3674 114.084 42.9613C112.302 43.4067 110.298 44.8913 108.665 45.4852C107.922 45.7821 107.106 46.0048 106.289 46.4502C105.547 46.8956 102.503 48.2318 103.023 47.8606C102.207 48.0833 100.425 49.9392 100.648 48.8257C100.648 48.8257 99.3857 49.2711 100.202 48.9741C99.6084 49.1226 98.9403 49.8649 98.0495 50.2361C98.2967 50.1864 98.5691 50.1619 98.866 50.1619C97.6783 50.7557 96.3421 51.2011 95.3028 51.8692C94.1893 52.5373 93.1501 53.5766 91.8881 54.0962V53.5024C90.0323 53.8735 89.7353 53.5024 88.028 53.8735C86.8402 54.6158 82.5347 56.3232 81.4954 56.4717C80.6046 56.6201 76.4476 55.4324 76.0022 56.6201C77.1157 56.7686 78.1549 56.9913 79.2684 56.9171C78.0807 57.2882 77.1899 58.1048 76.0022 58.4017C76.1507 58.5502 76.3236 58.5999 76.5218 58.5502C75.3341 58.8471 74.8887 58.6244 73.4782 59.0698C73.4782 59.3668 73.5028 59.6637 73.5525 59.9606C72.612 60.2576 71.6722 60.3563 70.7316 60.2576C70.8801 62.4103 69.3212 64.0434 69.3954 66.1962C69.4941 66.0975 69.5684 65.998 69.6181 65.8993C69.6181 68.7944 67.6881 79.187 65.2384 80.2263C65.2384 80.0778 65.2629 79.9538 65.3126 79.8551C64.793 80.7459 63.4568 82.0821 63.0856 82.6017C63.2341 82.379 60.7844 85.7937 61.4525 84.2348C59.8193 87.7238 57.6666 91.2128 54.4745 93.8852C53.0641 95.0729 50.4659 97.2999 48.7586 97.5226C48.8328 97.5226 46.6058 97.5968 46.9027 97.0772C46.3831 98.0422 45.0469 98.6361 44.0819 98.933C45.3438 96.8545 47.3481 96.9287 49.2782 94.7759V95.1471C49.7236 94.9244 51.8021 91.0643 52.0248 91.5097C51.8764 91.8564 51.9261 92.1533 52.1733 92.4005C53.2126 91.3612 51.5794 89.8023 53.4353 89.5796C53.3855 89.6784 53.3113 89.8023 53.2126 89.9508C54.623 88.5404 53.361 89.9508 53.8064 90.2477C54.3261 90.4704 55.2911 88.9115 54.9942 88.7631C52.6929 87.7238 54.9942 88.3177 55.8107 87.2042C56.1819 86.6845 56.2561 84.7545 56.5531 84.1606C57.2954 82.4533 56.9242 83.8637 57.9635 82.0821C57.9635 83.0471 56.4788 83.7152 57.0727 84.5318C57.4439 84.9772 58.5574 81.0428 58.9285 80.3005C59.3739 79.2612 60.2647 78.7416 60.339 77.2569C60.1533 77.4903 59.9551 77.7133 59.7451 77.925C61.8236 75.4011 61.1555 71.8379 62.1206 69.0171C62.0463 68.1263 64.0506 70.576 64.1249 70.7987C64.3476 70.576 64.2733 66.8643 64.3476 66.4931C63.9764 65.8993 63.3825 67.6066 63.3825 67.6066C63.4568 66.5674 64.5703 64.5631 63.9022 63.598C63.9519 63.9937 63.8279 64.2164 63.531 64.2661C63.2341 64.1919 62.6402 62.1876 62.8629 61.8907C63.1101 61.9894 63.3083 62.1379 63.4568 62.3361C63.704 61.841 63.7292 61.3213 63.531 60.7772C63.0856 60.7772 62.9371 60.9257 62.4175 60.9999C63.0856 60.7772 64.6445 60.5545 64.496 59.8864C63.9022 60.0349 63.3083 61.0741 63.3825 59.5895C63.6052 60.1833 63.9764 59.441 63.0856 59.0698C62.1948 58.6987 59.5224 60.0349 57.5923 59.6637C58.8543 59.7379 58.4089 58.9956 59.4482 58.9956C56.6273 58.4017 54.6972 60.7772 52.1733 61.1484C50.2432 61.3711 49.0555 60.1833 47.0512 60.6287C47.4966 60.4803 45.6408 59.441 44.8984 59.5895C45.2941 59.7877 45.6905 60.0104 46.0862 60.2576C44.3046 60.4803 42.4487 59.8122 40.7414 59.5152C41.4095 59.3668 40.4445 59.0698 41.6322 58.9956C41.8549 57.5109 38.1432 59.2925 37.9948 59.2925C35.7678 59.3668 32.7242 58.1048 30.6457 57.5109C25.5978 56.0263 20.6242 54.1704 16.1702 51.4981C8.67261 46.9698 3.17935 40.0662 1.39775 32.049C-0.903482 21.8048 1.47198 12.5257 10.6027 6.58704C13.7205 4.58275 16.6156 3.24655 19.8076 1.98459C23.0739 0.648395 27.0082 1.46496 30.5714 0.871094C32.0561 1.76189 35.3224 2.13306 37.3267 3.02385ZM65.3868 79.1128C65.3371 79.36 65.3126 79.6079 65.3126 79.8551C65.3868 79.5582 65.4611 79.3355 65.3868 79.1128ZM129.97 29.6735C129.871 29.822 129.772 29.9207 129.673 29.9705L129.97 29.6735ZM110.075 41.3281V41.2539C110.026 41.3036 110.026 41.3281 110.075 41.3281ZM108.294 40.7343C108.195 40.784 108.071 40.8582 107.922 40.957C108.071 40.8085 108.219 40.7343 108.294 40.7343ZM85.2071 50.6073C84.8256 50.6991 84.4702 50.8768 84.1678 51.1269C84.539 51.0527 84.9102 50.83 85.2071 50.6073ZM50.0205 12.3772C50.0703 12.2785 50.0703 12.1545 50.0205 12.0061V12.3772ZM108.145 45.4852H108.368C108.665 44.8913 108.516 45.114 108.145 45.4852ZM97.9752 50.3846C97.6783 50.1619 93.8924 50.9784 93.5955 51.7208C94.2636 52.4631 96.3421 50.7557 97.9752 50.3846ZM64.4218 59.441C64.0261 59.2428 63.8034 59.3423 63.7537 59.7379C63.8279 59.7379 64.4218 59.5895 64.4218 59.441ZM64.5703 60.5545C63.9022 60.8514 63.2341 62.4103 64.3476 62.4103C64.496 61.8165 64.5703 61.1981 64.5703 60.5545ZM72.439 56.7686C73.3298 56.9171 71.3997 57.7336 73.0329 57.3625C70.8801 58.2533 70.5832 57.5852 70.7316 59.8122C71.6224 59.5152 76.5218 56.9171 76.4476 56.8428C76.0764 56.6201 73.8494 57.2882 73.5525 57.2882C72.6617 56.8428 74.3691 56.4717 72.439 56.7686ZM20.1045 7.10667C20.1543 7.2054 20.2033 7.32937 20.253 7.47784C18.1002 7.6263 16.764 9.8533 14.834 9.92753C19.0653 6.73551 10.083 10.7441 11.6419 11.4122C11.8401 11.2637 12.0131 11.0908 12.1616 10.8926C12.3843 11.6349 10.5284 11.7834 11.2708 12.3772C12.1616 12.1545 12.0131 12.4515 13.0524 11.8576C13.572 11.5607 14.4628 10.2245 15.5021 10.076C15.8732 11.1153 13.7947 11.1153 13.3493 12.303C14.537 11.4122 13.572 12.8226 14.2401 12.4515C13.2008 13.268 13.8689 14.0103 12.9039 14.8269C12.9039 14.53 12.9284 14.2086 12.9781 13.8619C12.434 14.1588 12.1616 14.6042 12.1616 15.1981C12.607 16.1386 12.31 16.6582 11.2708 16.757C10.5284 18.4643 10.5284 18.0189 10.1573 19.7263C9.76161 19.0827 9.73637 18.4398 10.083 17.7962C9.93458 17.9944 9.88484 17.9692 9.93458 17.722C9.26648 18.2416 9.63764 19.3551 9.19224 19.7263C8.52414 20.1717 11.1223 13.9361 11.1965 13.7877C11.9886 13.5894 12.0628 13.2435 11.4192 12.7484C11.1223 12.6987 10.8254 12.6244 10.5284 12.5257C10.083 13.0453 10.4542 13.8619 10.1573 14.3815C8.59838 16.6827 7.78181 19.5036 7.93028 22.176L7.63334 21.4337C4.14438 23.0668 8.52414 28.0404 8.89531 30.0447C8.52414 30.4159 8.07874 29.3766 7.85604 29.3766C6.74255 29.0797 8.96954 32.1232 9.11801 32.2717C9.56341 32.7913 9.86034 32.6429 10.0088 32.4944C9.95907 33.0883 10.1075 33.6324 10.4542 34.1275L9.86034 33.979C10.1573 35.4637 13.572 38.3588 13.1266 37.0226C14.1659 39.2496 13.572 36.9484 14.537 37.9134C13.572 37.8392 14.834 39.1754 14.3143 39.5465C14.3143 39.5465 13.3493 38.2846 13.1266 38.73C13.2751 38.9527 13.7947 41.6251 14.537 41.1797C14.7842 40.5361 15.0567 39.8932 15.3536 39.2496C16.0217 39.3238 15.1309 41.4024 15.799 41.8478C15.1309 41.4766 15.1309 41.9962 15.3536 42.2932C15.8732 43.1097 18.9168 43.7036 19.7334 44.2974C19.5352 44.2974 19.3377 44.3219 19.1395 44.3717C20.0303 44.5201 20.1045 45.1882 20.9953 45.3367V45.2625C23.2223 47.4152 29.9776 48.9741 32.7242 49.7165C34.3573 50.1619 35.6935 50.9042 37.104 51.3496C38.069 51.5723 39.1082 51.4238 38.9598 51.3496C40.5929 51.3496 41.7806 52.2404 43.3395 52.0919C43.2653 52.1662 40.8156 52.6858 41.1125 53.057C42.0033 54.4674 49.2782 51.7208 51.3567 53.1312C51.258 53.1809 51.134 53.2552 50.9856 53.3539C51.431 53.4281 52.396 52.6116 52.6929 53.2054C52.6929 53.5521 52.52 53.7993 52.1733 53.9478C54.2518 53.8735 56.1819 52.9827 58.2604 53.057C59.2997 53.1312 60.2647 53.9478 61.8979 53.6508C64.4218 53.2054 64.496 52.9827 64.0506 50.533C64.0506 50.0876 62.8629 45.4109 63.8279 46.8214C62.6402 42.4416 61.0071 38.8042 59.7451 34.5729C59.8438 34.8698 60.042 35.0183 60.339 35.0183C59.9678 32.9398 58.3347 31.4551 57.4439 29.5993C56.9985 28.7827 56.6273 26.2588 56.1077 25.9619C55.8107 25.8134 55.9592 26.63 55.7365 26.5557C54.4003 25.8876 52.6187 22.8441 51.2825 21.211C49.3524 18.8355 47.7193 17.722 45.3438 15.7177C45.8635 16.6085 44.3046 15.495 44.2303 15.4208C45.1954 15.4208 44.3788 14.8269 45.5665 15.2723C44.5273 14.0846 41.9291 15.1238 41.9291 13.1196C42.3248 13.4165 42.7457 13.6147 43.1911 13.7134C42.5972 12.9711 41.8304 12.5012 40.8898 12.303C40.5929 12.303 41.3353 13.1196 41.1868 13.1938C40.8156 13.268 38.8856 11.5607 38.4402 11.2637C37.1782 10.6699 36.4359 11.2637 35.2481 10.8183C35.0997 10.2987 36.7328 10.0018 35.0254 9.55637C33.615 9.1852 33.9862 10.2987 32.7984 10.1502C32.7984 9.33367 33.3923 9.11097 34.2089 9.25943C33.9119 8.9625 32.65 8.14594 33.8377 7.99747C32.0561 8.14594 24.707 7.18091 25.3009 9.8533L24.2616 10.1502C23.5935 10.0018 24.9297 9.33367 24.5585 9.03673C23.8659 8.69006 23.3463 8.81403 22.9996 9.4079C23.1481 9.70483 23.3953 9.95203 23.742 10.1502C22.7769 9.8533 22.7027 10.8183 21.8861 10.6699C23.2223 10.1502 20.9211 9.70483 22.7769 9.33366C20.8469 9.11097 22.8512 8.9625 23.0739 8.22017C22.1376 8.4169 21.2189 8.69 20.3272 9.03673C20.4757 8.2944 21.8861 8.5171 22.2573 7.849C21.4407 7.849 19.7334 8.7398 19.0653 8.22017C19.3622 7.99747 21.0696 7.99747 21.218 7.32937C20.9211 7.18091 20.4757 7.10667 20.1045 7.10667ZM38.5144 51.4238L38.9598 51.3496C38.8113 51.3496 38.6628 51.3741 38.5144 51.4238ZM20.6984 44.9655C20.9953 45.0153 21.0941 45.114 20.9953 45.2625L20.6984 44.9655ZM10.0088 32.4944C10.3057 32.2717 10.38 31.9005 10.7511 33.1625C10.4707 32.9794 10.2203 32.754 10.0088 32.4944ZM20.0303 7.03244L19.9561 7.10667H20.1045L20.0303 7.03244ZM19.9561 7.10667C19.2137 7.10667 18.5456 7.25514 18.7683 7.40361C19.3622 7.70054 19.7334 7.25514 19.9561 7.10667Z" fill="#100F13" fill-opacity="0.2"/>
<path d="M66.9453 35.4646C67.1924 35.8602 67.4151 36.2566 67.6134 36.6523C67.3662 36.0584 67.1435 35.4646 66.9453 34.8707C67.2422 35.3658 67.2422 35.5633 66.9453 35.4646ZM136.353 17.6486C136.056 17.7474 135.76 17.8216 135.463 17.8713C135.512 18.0198 135.537 18.1438 135.537 18.2425C135.784 18.0443 136.056 17.8468 136.353 17.6486ZM123.511 28.4124L124.699 27.7443C124.847 27.2989 123.363 27.967 123.511 28.4124ZM131.38 28.1897L131.677 27.4474C131.033 27.6456 130.662 28.0658 130.563 28.7094C131.009 28.0413 130.86 28.6351 131.38 28.1897ZM119.577 31.8271C119.725 31.5302 120.987 31.159 120.69 30.6394C120.69 31.3075 119.428 31.2333 119.577 31.8271ZM126.555 33.1633C125.961 33.683 124.773 33.8314 124.773 34.3511C125.515 34.4995 125.738 33.683 126.555 33.1633ZM117.721 34.4253C116.978 34.648 114.603 34.5738 115.271 35.9842C115.42 36.4296 117.721 34.4995 116.385 35.91C116.83 35.3658 117.275 34.8707 117.721 34.4253ZM123.14 35.6873C123.832 35.5388 124.476 35.2664 125.07 34.8707C124.526 34.6235 124.006 34.7467 123.511 35.2419V34.648C122.843 34.8707 123.882 35.1676 123.14 35.6873ZM111.856 37.3204C112.673 37.0977 114.158 36.0584 114.306 35.0934C113.49 35.6873 112.45 36.5038 111.856 37.3204ZM119.725 37.0977C119.775 37.3449 119.849 37.5676 119.948 37.7658C119.874 37.7658 120.764 36.8008 120.764 36.7265C120.022 37.3946 120.319 36.5038 119.725 37.0977ZM117.647 40.6609L118.092 40.067C117.721 39.0278 116.682 40.2897 116.385 40.5866C116.78 40.6364 117.201 40.6609 117.647 40.6609ZM115.717 40.1412C115.345 40.5866 114.677 41.329 114.38 41.9971C114.923 41.4547 115.374 40.828 115.717 40.1412ZM93.2981 46.8222C93.4465 46.5253 91.8876 46.748 92.7784 46.6738C92.7042 47.0449 93.8919 46.9707 93.2981 46.8222ZM98.049 50.6823C98.5441 50.6326 98.8901 50.4099 99.0883 50.0142C98.1975 50.0142 96.9355 51.0535 96.1932 51.5731C96.8368 51.2762 97.4551 50.9793 98.049 50.6823ZM56.1072 59.6646C55.8103 59.5161 54.9195 59.813 55.2164 60.0357C55.6618 59.813 56.1814 59.8872 56.1072 59.6646ZM11.493 34.7965C11.8642 35.3903 11.8642 34.9449 12.3096 35.3161C12.0869 34.7222 11.7899 34.4253 11.493 34.7965ZM10.0826 30.1198C10.0083 29.9713 9.85985 29.7486 9.85985 29.9713C9.93409 29.9713 10.0083 30.0455 10.0826 30.1198ZM9.48869 29.5259C9.53842 29.1303 9.73589 29.056 10.0826 29.3032C9.9236 29.0932 9.74995 28.8948 9.56292 28.7094C8.96906 30.1198 9.41445 29.8971 9.48869 29.5259ZM7.41016 22.9934C7.78132 24.1811 8.52366 23.5873 8.30096 25.1462C8.74636 24.2554 8.82059 25.8885 8.96906 26.1112C9.19176 23.7357 7.48439 23.3646 7.48439 21.8057C7.48439 22.2013 7.45989 22.5977 7.41016 22.9934ZM7.70709 26.6308C8.15249 26.7051 8.00402 25.6658 7.78132 25.3689C7.70709 25.6658 7.26169 26.2597 7.70709 26.6308ZM9.11752 21.4345C8.82059 21.0388 8.69662 21.2363 8.74636 22.0284C8.89482 21.8302 9.01879 21.6327 9.11752 21.4345ZM9.71139 20.4695C9.56292 20.2468 9.85985 19.4302 9.48869 19.8014L9.71139 20.4695ZM10.7507 16.9063C10.8249 16.9063 11.7899 16.3124 11.3445 17.129C11.6415 16.9063 11.3445 15.5701 10.7507 16.9063ZM16.1697 10.6707C15.774 10.7694 15.5758 10.9921 15.5758 11.3388C19.5102 7.55292 15.8728 11.0419 16.1697 10.6707ZM12.8292 9.63145C13.7942 9.18605 13.6458 9.33451 14.7593 8.59218C14.0169 8.29525 13.72 9.33452 12.8292 9.63145ZM17.2832 11.1161C16.5906 11.3633 16.6151 11.413 17.3574 11.2646C17.9015 10.6707 17.877 10.621 17.2832 11.1161ZM18.8421 9.63145L18.2482 11.1161C18.9905 10.8934 18.8421 10.0768 19.5102 10.0026C20.0298 9.85415 20.9948 10.3738 21.7372 9.55721C21.3415 9.26028 21.1931 8.86462 21.2918 8.36949C20.6979 8.59218 19.5844 10.1511 18.8421 9.63145ZM17.3574 8.29525C16.912 7.70139 16.2439 8.96335 16.0212 9.18605C17.2832 9.03758 16.4666 9.03758 17.3574 8.29525ZM27.6016 7.84985C27.2506 7.90058 26.9033 7.97498 26.5623 8.07255C27.9728 7.99832 27.7501 7.62715 27.6016 7.84985ZM27.5274 8.29525C27.5274 8.88912 27.923 8.86462 28.7151 8.22102C28.3194 8.27075 27.923 8.29525 27.5274 8.29525ZM28.9378 8.66642C28.6409 8.66642 28.3439 8.69091 28.047 8.74065C28.1212 8.74065 29.3832 8.59218 28.9378 8.66642ZM30.9421 8.96335C31.4372 8.86462 31.8574 9.01309 32.2041 9.40875C32.0556 9.03758 30.9421 8.51795 30.9421 8.96335ZM46.6796 6.58789C46.3329 6.63763 46.2587 6.83509 46.4569 7.18176C46.7106 7.1304 46.9591 7.05585 47.1992 6.95906C47.0507 6.86033 46.8778 6.73636 46.6796 6.58789ZM49.6489 8.96335C48.7581 8.22102 47.6446 8.07255 46.6796 7.47869C47.2734 7.87435 47.8918 8.27075 48.5354 8.66642H48.1642L49.6489 8.96335ZM64.5698 29.7486C65.6091 31.0848 65.8317 32.8664 67.1679 33.683C67.1679 33.0394 66.8465 32.4707 66.2029 31.9756C66.3514 32.0253 66.4754 32.0743 66.5741 32.1241C66.3514 30.7879 65.2379 30.5652 64.5698 29.7486ZM49.8716 93.5891C49.8716 93.3664 49.5747 93.3664 49.352 93.3664C48.8323 94.1087 49.7231 93.5891 49.8716 93.5891ZM109.481 23.9584L109.258 23.8842C109.184 24.2554 109.332 24.0327 109.481 23.9584ZM109.481 23.9584L109.629 24.0327C109.58 23.9829 109.531 23.9584 109.481 23.9584ZM110.743 24.1069C110.52 24.4038 110.149 24.0327 109.926 24.5523C110.297 24.775 110.743 24.6265 110.743 24.1069ZM111.782 24.1811C111.337 23.9584 111.782 24.0327 111.411 23.6615C111.312 23.9087 111.139 24.1069 110.891 24.2554C111.114 25.1462 111.782 24.2554 111.782 24.1811ZM127.148 15.9413H127.223C127.148 15.9413 127.148 15.867 127.148 15.9413ZM124.921 18.0198H124.699C124.748 18.0695 124.823 18.0695 124.921 18.0198ZM135.24 10.0768C135.339 10.0271 135.413 9.97812 135.463 9.92838C135.314 9.97812 135.24 10.0271 135.24 10.0768ZM116.385 23.81C116.459 23.81 116.533 23.7357 116.533 23.6615C116.459 23.5873 116.385 23.6615 116.385 23.81ZM116.904 23.2161C116.385 22.9934 116.83 24.0327 116.83 24.0327C116.459 23.6615 117.944 23.2903 116.904 23.2161ZM127.223 16.0155C127.074 16.0155 127.148 15.9413 127.223 16.0155V16.0155ZM126.258 17.129C126.332 17.129 126.332 17.129 126.406 17.0548C126.356 17.0548 126.307 17.0793 126.258 17.129ZM135.982 31.456C135.759 30.7136 136.131 31.7529 135.76 31.3075C135.76 31.3817 136.428 31.9014 135.982 31.456ZM142.886 12.9719C142.737 13.0707 142.564 13.1946 142.366 13.3431C142.812 13.1946 143.554 12.8235 143.925 12.4523C142.886 13.0959 142.539 13.2689 142.886 12.9719ZM136.947 27.7443C136.997 27.6946 137.021 27.6456 137.021 27.5959C136.947 27.6701 136.947 27.6701 136.947 27.7443ZM137.838 14.902C137.788 15.0007 137.764 15.075 137.764 15.1247C137.814 15.075 137.838 15.0007 137.838 14.902ZM144.519 11.4873C144.519 11.413 144.964 10.7449 144.593 11.1161C144.593 11.1161 144.296 11.6357 144.519 11.4873Z" fill="#100F13" fill-opacity="0.2"/>
<path fill-rule="evenodd" clip-rule="evenodd" d="M149.344 9.11137C148.157 10.4476 147.785 17.2028 145.93 17.9451L145.558 17.5739C145.41 17.6482 144.89 19.3555 144.89 19.3555C144.692 19.1083 144.469 19.0341 144.222 19.1328C144.148 19.2813 144.371 19.9494 144 20.0236C144.519 20.0979 145.707 20.3948 145.113 20.766L144.816 20.6175C144.445 21.2856 144.371 22.1022 143.703 22.5476C143.48 22.9187 143.183 25.5169 143.257 25.5911C143.109 25.6409 142.985 25.6654 142.886 25.6654C142.792 25.4272 142.668 25.2026 142.515 24.9973C141.773 25.8138 141.55 26.7046 141.847 27.3727V27.2985C141.401 29.5997 140.139 36.8745 140.139 36.9488C139.842 36.7261 139.249 38.4334 139.174 38.0623C139.471 39.6954 139.174 41.0316 138.729 42.5163C137.541 42.3678 137.912 43.4071 137.615 43.9267C137.467 43.3328 137.393 42.8132 137.615 42.1451C137.385 41.7676 137.083 41.4396 136.725 41.1801C136.972 41.0316 137.22 41.0071 137.467 41.1058C137.22 40.8586 136.898 40.7102 136.502 40.6604C136.354 40.5862 137.393 40.2893 137.467 40.2893C137.467 39.4727 136.502 40.512 136.279 39.7696C136.576 39.8194 136.823 39.7199 137.022 39.4727C135.834 39.1015 136.279 38.4334 136.279 37.988C136.576 38.1365 135.982 39.25 136.947 38.5819L135.908 37.0972C136.106 37.0972 136.304 37.0475 136.502 36.9488C136.205 36.8003 136.205 36.7261 136.205 36.7261C136.155 36.7261 136.106 36.7016 136.057 36.6519C136.576 35.9095 135.388 34.796 135.685 34.0537C135.685 34.1279 137.467 34.4991 137.541 34.4991C137.393 34.2764 136.576 32.866 136.354 33.4598C136.403 33.1629 136.378 32.8415 136.279 32.4948C136.205 33.0144 135.24 32.0494 135.463 31.9009C135.685 32.0494 136.279 32.3463 135.834 31.604C136.032 31.8512 136.255 32.0494 136.502 32.1979C136.65 31.9009 136.279 30.1193 136.354 29.7482C136.279 30.0451 136.725 29.5997 136.725 29.5255C136.799 28.9316 137.022 28.115 137.096 27.8181C137.244 27.4469 138.581 22.0279 139.546 22.5476C139.694 22.0279 139.768 19.4298 140.362 18.3905C139.917 18.539 139.62 19.2071 139.026 19.5782C139.125 19.4298 139.199 19.2813 139.249 19.1328C138.803 19.4298 138.358 19.7267 137.912 19.9494C138.655 18.9101 139.62 18.0193 140.065 16.8316C140.115 17.0788 140.189 17.3267 140.288 17.5739C140.288 17.4752 140.338 17.3757 140.436 17.277C140.808 17.4255 140.956 17.0543 140.808 17.6482C141.773 17.1285 140.585 17.1285 140.585 16.8316C141.624 17.277 140.956 15.347 141.03 15.2727C141.179 15.4212 141.377 15.5199 141.624 15.5696C141.773 15.4212 141.822 15.2482 141.773 15.05C141.557 14.9917 141.355 14.8907 141.179 14.7531C141.401 14.8273 142.515 15.1243 142.663 15.2727C142.218 14.6789 142.218 14.6046 142.441 14.2335C142.144 14.085 141.847 14.1592 141.55 14.2335C141.698 14.1347 141.822 14.0353 141.921 13.9365C141.822 13.9863 141.748 14.0108 141.698 14.0108C142.589 13.6396 142.886 13.1942 143.777 12.6746C143.777 12.7733 143.727 12.8728 143.628 12.9715C143.777 12.823 145.187 12.4519 144.89 12.0065C144.668 12.0807 144.371 12.4519 144.296 12.5261C144.186 12.584 144.086 12.6592 144 12.7488C144.445 12.2292 144.148 12.0807 144.148 11.858C144.148 12.0807 146.078 10.0764 145.781 10.0764C145.855 10.0764 145.113 10.596 145.039 10.7445L145.336 10.2991C145.286 10.3488 145.212 10.3733 145.113 10.3733C145.21 10.3258 145.288 10.2475 145.336 10.1506C144.89 10.4476 142.441 11.7838 144 11.1899C143.901 11.3881 143.777 11.5611 143.628 11.7095L144.074 11.4126L143.554 11.9322C145.336 10.6703 143.777 11.6353 144 11.858C143.901 12.1052 143.703 12.2789 143.406 12.3776C143.925 11.7838 142.96 12.4519 142.738 12.823C142.96 12.3776 141.698 13.2684 141.624 13.4911C141.871 13.2929 142.094 13.0955 142.292 12.8973C142.069 13.1942 141.327 13.7138 141.03 13.9365C140.989 14.0636 140.94 14.1876 140.882 14.3077V14.3819C140.808 14.7531 140.659 15.05 140.362 15.4212C140.065 15.3714 139.991 15.174 140.139 14.8273C139.991 14.2335 139.026 15.6439 139.026 15.7923C139.026 15.4954 138.877 15.3225 138.581 15.2727C138.581 15.2727 139.768 14.2335 140.511 13.5654C140.511 13.7138 140.535 13.8868 140.585 14.085V14.1592L140.659 14.085C140.609 14.1347 140.585 14.1837 140.585 14.2335C140.832 13.8868 141.08 13.5654 141.327 13.2684L141.03 13.8623C141.327 13.5654 141.773 13.0457 142.144 12.6746C142.441 12.5758 142.589 12.4021 142.589 12.1549C142.441 12.3034 142.589 12.1549 142.589 12.0065C142.193 12.4519 141.797 12.9218 141.401 13.4169C142.144 12.5261 141.773 12.8973 141.476 13.1942C141.995 12.6003 142.366 12.3034 142.663 11.5611C142.465 11.858 142.242 12.1304 141.995 12.3776C142.886 11.1157 142.589 11.7095 143.48 10.3733C143.109 10.5218 142.663 11.0414 142.292 11.6353L142.218 11.7095C141.995 12.0065 141.773 12.3034 141.624 12.6746C141.574 12.6746 141.55 12.6991 141.55 12.7488H141.476V12.6746C141.624 12.4519 141.179 13.1942 140.956 13.5654C141.055 13.3182 141.154 13.0955 141.253 12.8973C141.55 12.823 141.55 12.5261 141.401 12.3034L141.55 11.858C141.506 11.9974 141.429 12.1246 141.327 12.2292C141.104 11.858 140.436 11.7095 140.511 13.4169C139.842 13.7881 138.729 14.0108 138.581 14.0108C138.506 14.6789 138.061 14.2335 137.838 14.9016C137.838 14.9016 138.061 13.5654 137.541 13.8623C137.393 15.05 136.65 15.8666 135.908 15.7181C135.76 15.8168 135.735 15.9653 135.834 16.1635C135.537 16.0648 135.413 15.8666 135.463 15.5696C134.498 16.3862 132.568 18.6132 130.86 18.0193C130.341 19.0586 129.227 19.0586 127.817 19.4298C127.668 19.7267 127.371 20.2463 127.297 20.2463C127.211 20.0784 127.137 19.9048 127.074 19.7267L126.48 21.0629C126.184 20.8402 125.961 20.5433 125.961 20.3948C125.466 19.9991 125.293 20.0481 125.441 20.5433C125.441 20.469 125.07 19.8009 124.996 20.2463C124.922 20.5433 125.219 20.8402 125.441 20.9887C124.031 20.5433 123.214 22.696 121.136 23.1414C121.433 22.7948 121.73 22.4733 122.026 22.1764C122.101 22.1764 122.101 22.1022 122.101 21.8795C121.507 21.8052 121.581 22.3991 121.358 22.1764C121.581 21.9537 121.136 21.2856 121.061 21.5825C120.814 22.0777 120.888 22.2261 121.284 22.0279C121.089 22.1714 120.957 22.3838 120.913 22.6218C120.69 22.696 120.245 22.9187 120.096 22.993C120.022 22.8445 118.76 22.4733 118.538 22.3991C119.206 22.696 119.131 22.993 118.834 23.2899H118.76L118.538 23.5126C118.538 23.5126 117.795 22.8445 117.572 22.7703C117.671 22.9685 117.745 23.1414 117.795 23.2899C117.424 23.1414 115.939 23.2899 115.939 23.2157C116.014 23.1414 116.756 22.4733 116.236 21.8795C115.939 23.3641 115.717 23.4384 114.974 23.3641L114.752 23.5868C114.752 23.5371 114.727 23.4881 114.677 23.4384C114.529 23.3641 114.38 23.7353 114.38 23.8838C114.38 23.5868 113.49 24.1807 113.341 24.2549C113.49 23.6611 114.306 23.1414 114.232 22.9187C113.564 22.3249 112.97 24.2549 112.747 24.2549C112.747 24.0567 112.649 23.9335 112.45 23.8838C112.302 24.3292 112.525 24.4776 111.931 24.4776C111.931 24.4034 111.782 23.2157 112.302 23.1414C112.104 23.3886 112.055 23.6366 112.153 23.8838C112.45 23.834 112.673 23.6611 112.822 23.3641V22.1022C112.97 22.1022 113.118 22.0524 113.267 21.9537C113.787 22.696 113.193 21.9537 113.935 22.1022C113.688 22.3004 113.638 22.5476 113.787 22.8445C113.712 22.4733 114.529 22.9187 114.974 22.1764C114.826 22.8445 115.42 22.993 115.494 22.696C115.494 22.6218 116.014 21.8795 115.271 21.8052C115.568 21.731 116.014 21.731 116.014 21.4341C116.607 21.6568 115.791 22.0279 116.607 21.731C117.127 21.5083 116.385 21.2856 116.385 21.1371C116.533 21.2359 116.632 21.1869 116.682 20.9887C116.731 21.2359 116.855 21.4341 117.053 21.5825C117.3 21.5328 117.449 21.3843 117.498 21.1371C117.572 21.2114 118.241 22.1022 118.463 22.1022C118.362 21.6282 118.414 21.1343 118.612 20.6917C118.686 20.9144 118.538 21.4341 118.983 21.0629C119.131 20.8402 118.092 19.8752 118.463 19.8009C118.76 20.2961 119.206 20.6175 119.799 20.766C120.616 18.9844 119.799 20.6175 119.799 19.504C120.393 19.8009 122.843 18.8359 122.695 18.9844C123.882 19.1328 123.882 17.6482 124.922 16.6831C125.738 17.5739 127.52 16.0893 128.336 15.7923C126.703 15.347 129.153 15.1985 128.188 14.6789C128.386 14.5801 128.509 14.6544 128.559 14.9016C128.707 14.8518 128.782 14.8028 128.782 14.7531C128.633 15.05 128.485 15.2727 128.485 15.347C128.707 15.4212 129.45 15.8666 129.747 15.7181C128.856 15.5697 130.192 14.6046 130.341 14.3819C130.249 14.3406 130.168 14.279 130.104 14.2018C130.04 14.1247 129.994 14.034 129.969 13.9365C129.895 14.2335 129.598 14.3819 130.044 14.3077C129.93 14.4186 129.806 14.5181 129.673 14.6046C129.227 14.085 129.821 13.8623 129.969 13.2684C130.192 14.085 130.786 13.2684 130.934 13.3427C131.009 13.6396 130.934 13.9365 131.528 13.8623C131.677 13.5654 131.306 12.8973 132.271 12.8973L132.122 13.4911C132.196 13.3427 133.83 10.8187 133.904 10.6703C133.904 10.8187 134.423 11.7838 134.646 10.893C134.498 10.893 134.349 10.8685 134.201 10.8187C134.498 10.4721 134.844 10.2249 135.24 10.0764C135.24 10.5218 135.463 10.7445 135.834 10.596C136.65 8.36904 142.812 4.36045 145.633 3.17273C150.829 2.05923 149.79 6.29052 149.344 9.11137ZM140.585 14.1592V14.085C140.585 13.6893 140.758 13.3672 141.104 13.12C140.956 13.4666 140.783 13.8126 140.585 14.1592ZM140.511 13.5654V13.4169C140.808 13.1942 141.03 12.9715 141.03 12.7488C141.129 12.6003 141.228 12.4274 141.327 12.2292L141.401 12.3034C141.303 12.5506 141.203 12.823 141.104 13.12C141.03 13.12 140.808 13.3427 140.511 13.5654ZM129.895 13.7881C129.895 13.8378 129.92 13.8868 129.969 13.9365C129.969 13.8868 129.945 13.8378 129.895 13.7881ZM128.782 14.7531C128.93 14.3819 128.039 13.5654 129.45 13.5654C129.376 13.6396 129.079 14.2335 128.782 14.7531ZM128.856 15.8666C128.782 15.7181 128.633 15.6439 128.336 15.7923C128.485 15.7923 128.658 15.8168 128.856 15.8666ZM120.096 22.993C120.146 22.993 120.146 22.993 120.096 22.993V22.993ZM127.742 19.4298H127.817C127.891 19.2071 127.965 19.0586 127.742 19.4298ZM141.03 12.6003C140.98 12.6501 140.98 12.6248 141.03 12.5261V12.6003ZM141.104 12.5261C141.055 12.5261 141.03 12.5506 141.03 12.6003L141.104 12.5261ZM141.03 12.6003V12.7488C140.969 12.8149 140.919 12.89 140.882 12.9715C140.931 12.8728 140.98 12.7488 141.03 12.6003ZM139.026 15.7923C138.976 15.7923 138.976 15.7923 139.026 15.7923V15.7923ZM141.698 12.6746C141.6 12.8728 141.476 13.0702 141.327 13.2684C141.426 13.0702 141.55 12.8728 141.698 12.6746ZM140.956 13.5654C140.906 13.6151 140.882 13.6641 140.882 13.7138C140.832 13.7138 140.808 13.7383 140.808 13.7881C140.857 13.6893 140.906 13.6151 140.956 13.5654C140.906 13.6151 140.882 13.6641 140.882 13.7138C140.733 13.7881 140.808 13.7138 140.956 13.5654ZM141.55 12.823C141.55 12.7733 141.574 12.7243 141.624 12.6746C141.822 12.3279 142.02 12.0065 142.218 11.7095L142.292 11.6353C141.773 12.4519 141.995 12.1549 142.144 12.0065C141.624 12.6746 141.253 13.2684 140.882 13.7881C141.03 13.5654 141.253 13.1942 141.55 12.7488V12.823ZM144.445 12.5261C144.371 12.6003 144.296 12.6003 144.296 12.5261H144.445ZM140.882 14.3077L140.733 14.3819C140.783 14.3322 140.832 14.3077 140.882 14.3077ZM140.362 17.6482C140.436 17.9451 140.585 18.1678 140.659 18.4647C141.03 18.0936 140.511 17.9451 140.362 17.6482ZM141.921 27.15C141.921 26.9273 141.698 26.8531 141.847 26.6304C141.897 26.6801 141.946 26.6549 141.995 26.5561C141.995 26.5561 141.921 26.7789 141.921 27.15ZM143.851 20.0236H144C143.777 19.9494 143.628 19.9494 143.851 20.0236ZM140.882 14.3819C141.104 14.3077 141.327 14.2335 141.55 14.2335C141.352 14.3322 141.129 14.3819 140.882 14.3819ZM141.921 13.0457C141.624 13.2929 141.327 13.5654 141.03 13.8623V13.9365L141.921 13.0457ZM140.288 17.5739L140.362 17.6482C140.362 17.5984 140.338 17.5739 140.288 17.5739ZM141.847 27.2985C141.847 27.2487 141.871 27.1998 141.921 27.15C141.921 27.1998 141.897 27.2487 141.847 27.2985ZM121.358 19.4298H121.284C121.284 19.6525 121.284 19.5782 121.358 19.4298ZM123.808 18.242C123.882 18.3163 124.996 18.3905 124.922 18.0193C124.55 17.4997 124.625 18.242 123.808 18.242ZM140.659 14.085C140.659 14.0108 140.733 13.8623 140.808 13.7881L140.659 14.085ZM142.738 12.0807C142.663 12.1549 142.589 12.2292 143.183 11.7838C143.554 11.4868 142.96 11.7838 142.738 12.0807ZM144.074 11.4126C144.371 11.0414 144.816 10.596 145.113 10.3733L144.074 11.4126ZM142.812 11.9322C142.862 11.8825 142.886 11.8335 142.886 11.7838C142.836 11.8335 142.812 11.8825 142.812 11.9322ZM142.886 11.7838L143.035 11.6353C142.985 11.6353 142.936 11.6598 142.886 11.7095V11.7838ZM143.48 11.1157C143.851 10.6703 144.222 10.1506 144.668 9.70524C144.519 9.8537 144.371 9.92794 144.445 9.70524C144.296 9.92794 143.703 10.4476 143.257 10.893C143.035 11.5611 142.515 12.0065 143.48 11.0414V11.1157ZM143.257 10.893C143.109 11.0414 142.96 11.2144 142.812 11.4126C142.911 11.2641 143.059 11.0912 143.257 10.893ZM143.48 11.1157C143.331 11.3139 143.183 11.4868 143.035 11.6353C143.282 11.4868 143.43 11.3139 143.48 11.1157Z" fill="#100F13" fill-opacity="0.2"/>
<path d="M112.599 22.7699C112.079 22.6214 111.931 21.4337 111.708 23.2153C111.947 22.9719 112.261 22.8152 112.599 22.7699ZM117.35 24.6257L116.904 24.5515C116.83 24.7 117.35 24.9227 117.35 24.6257ZM118.612 24.0319C118.537 24.1803 118.166 23.9576 118.241 24.3288C118.241 23.9576 118.612 24.403 118.612 24.0319ZM116.83 20.7656C116.682 20.4687 116.607 20.8398 116.385 20.8398C116.533 20.7656 116.904 21.0625 116.83 20.7656ZM119.131 23.1411C119.428 23.1411 119.675 23.2895 119.874 23.5865C119.972 23.2398 119.898 22.9429 119.651 22.6957C119.725 22.8441 119.428 22.7699 119.131 23.1411ZM120.913 23.0668C120.764 23.1411 120.245 23.1411 120.245 23.7349L120.913 23.0668ZM118.909 20.1717C118.909 19.8748 119.354 19.8006 118.76 19.4294C118.661 19.7263 118.71 19.9735 118.909 20.1717ZM119.503 20.3944C119.552 20.0975 119.601 19.8251 119.651 19.5779C119.577 19.8748 119.503 20.0975 119.503 20.3944ZM125.887 20.6171C125.887 20.8398 126.332 20.9141 126.035 20.8398C126.035 20.6171 125.664 20.4687 125.887 20.6171ZM123.437 17.8705C123.585 17.9447 123.882 17.4994 124.031 17.2767C123.882 17.4994 123.288 17.6478 123.437 17.8705ZM132.419 11.9319C132.419 12.0803 132.271 12.0803 132.345 12.2288C132.419 12.303 132.493 12.0061 132.419 11.9319ZM141.401 12.9711C141.327 12.9711 141.104 13.3423 141.03 13.565C140.882 13.7877 141.03 13.565 141.401 12.9711ZM140.882 13.7877C140.956 13.7877 140.956 13.7135 141.03 13.6392L140.882 13.7877ZM141.476 13.3423L141.03 13.8619C141.104 13.7135 141.179 13.7135 141.476 13.3423ZM141.03 13.8619C140.98 13.8619 140.931 13.8864 140.882 13.9362L141.03 13.8619ZM141.55 13.4165C141.253 13.6637 140.98 13.9117 140.733 14.1589C141.03 13.9362 141.253 13.6392 141.55 13.4165ZM145.261 10.7441C145.039 11.0411 144.965 11.0411 144.89 11.2638C145.558 10.7441 144.965 11.0411 145.261 10.7441ZM141.03 14.1589C140.511 14.53 142.144 13.7135 142.292 13.6392C141.921 13.3423 141.476 13.8619 140.882 14.1589C141.104 14.0846 142.218 13.4165 141.03 14.1589ZM143.925 12.1546C143.678 12.2533 143.48 12.4018 143.331 12.6C143.331 12.6 144.593 11.9319 143.925 12.1546ZM145.039 19.6521C144.965 19.6521 144.965 19.5779 145.187 19.949C145.707 19.1325 145.187 19.5036 145.039 19.6521ZM142.292 25.2196C142.441 26.1104 142.441 26.0362 142.589 26.4073C142.812 25.8877 142.515 25.8877 142.292 25.2196ZM137.393 41.922C137.244 41.922 137.096 41.9963 137.022 41.9963C137.17 42.219 137.318 41.9963 137.393 41.922Z" fill="#100F13" fill-opacity="0.2"/>
</g>
</g>
<defs>
<clipPath id="clip0_1703_2146">
<rect width="149.97" height="98.73" fill="white" transform="translate(0.200195 0.5)"/>
</clipPath>
</defs>
</svg>
