<svg width="20" height="20" viewBox="0 0 20 20" fill="none" xmlns="http://www.w3.org/2000/svg">
<g clip-path="url(#clip0_1532_21)">
<path d="M6.11111 9.55556C6.11111 9.96811 5.94722 10.3638 5.6555 10.6555C5.36378 10.9472 4.96811 11.1111 4.55556 11.1111C4.143 11.1111 3.74733 10.9472 3.45561 10.6555C3.16389 10.3638 3 9.96811 3 9.55556C3 9.143 3.16389 8.74734 3.45561 8.45561C3.74733 8.16389 4.143 8 4.55556 8C4.96811 8 5.36378 8.16389 5.6555 8.45561C5.94722 8.74734 6.11111 9.143 6.11111 9.55556ZM11.5556 9.55556C11.5556 9.96811 11.3917 10.3638 11.0999 10.6555C10.8082 10.9472 10.4126 11.1111 10 11.1111C9.58744 11.1111 9.19178 10.9472 8.90006 10.6555C8.60833 10.3638 8.44444 9.96811 8.44444 9.55556C8.44444 9.143 8.60833 8.74734 8.90006 8.45561C9.19178 8.16389 9.58744 8 10 8C10.4126 8 10.8082 8.16389 11.0999 8.45561C11.3917 8.74734 11.5556 9.143 11.5556 9.55556ZM17 9.55556C17 9.96811 16.8361 10.3638 16.5444 10.6555C16.2527 10.9472 15.857 11.1111 15.4444 11.1111C15.0319 11.1111 14.6362 10.9472 14.3445 10.6555C14.0528 10.3638 13.8889 9.96811 13.8889 9.55556C13.8889 9.143 14.0528 8.74734 14.3445 8.45561C14.6362 8.16389 15.0319 8 15.4444 8C15.857 8 16.2527 8.16389 16.5444 8.45561C16.8361 8.74734 17 9.143 17 9.55556Z" fill="#82878C"/>
<rect x="1" y="1" width="18" height="18" rx="4" stroke="#82878C" stroke-width="2"/>
</g>
<defs>
<clipPath id="clip0_1532_21">
<rect width="20" height="20" fill="white"/>
</clipPath>
</defs>
</svg>
